<svg width="706" height="581" viewBox="0 0 706 581" fill="none" xmlns="http://www.w3.org/2000/svg">
<path d="M68.8493 399.18C73.3942 339.154 172.354 338.668 248.548 249.809C314.534 172.838 283.23 122.361 348.523 77.3552C396.218 44.4658 466.806 33.0488 529.48 58.1039C598.59 85.7244 626.608 145.402 632.984 160.199C661.645 226.522 642.693 286.901 635.755 307.871C607.148 394.241 534.026 437.343 498.958 458.037C367.203 535.732 171.837 547.661 95.3831 459.302C85.3623 447.742 66.8029 426.283 68.8493 399.18Z" fill="url(#paint0_linear_134:1956)"/>
<g clip-path="url(#clip0_134:1956)">
<path d="M125.771 451.974C126.028 461.839 127.634 471.618 130.541 481.022C130.606 481.24 130.677 481.455 130.747 481.673H148.547C148.529 481.477 148.509 481.259 148.49 481.022C147.304 466.98 154.084 382.535 162.266 367.92C161.549 369.105 124.391 407.356 125.771 451.974Z" fill="#E6E6E6"/>
<path d="M127.107 481.022C127.255 481.24 127.41 481.458 127.569 481.673H140.923C140.822 481.487 140.705 481.269 140.569 481.022C138.363 476.924 131.833 464.674 125.772 451.974C119.261 438.326 113.283 424.161 113.786 419.034C113.63 420.189 109.123 455.44 127.107 481.022Z" fill="#E6E6E6"/>
<path d="M343.562 466.584C343.692 471.596 344.508 476.564 345.985 481.342C346.018 481.453 346.054 481.562 346.09 481.673H355.133C355.124 481.574 355.114 481.463 355.105 481.342C354.502 474.208 357.946 431.305 362.103 423.88C361.739 424.482 342.86 443.916 343.562 466.584Z" fill="#E6E6E6"/>
<path d="M344.24 481.342C344.316 481.453 344.395 481.564 344.475 481.673H351.26C351.209 481.579 351.149 481.468 351.08 481.342C349.959 479.26 346.642 473.036 343.562 466.584C340.254 459.65 337.217 452.453 337.473 449.848C337.394 450.436 335.104 468.345 344.24 481.342Z" fill="#E6E6E6"/>
<path d="M290.021 180.847L267.001 197.698L281.325 199.277L301.277 181.902L290.021 180.847Z" fill="#3F3D56"/>
<path d="M199.958 468.564L213.804 468.564L220.391 413.603L199.956 413.604L199.958 468.564Z" fill="#9F616A"/>
<path d="M196.426 463.912L223.693 463.911H223.694C228.303 463.911 232.723 465.796 235.981 469.149C239.24 472.503 241.071 477.051 241.071 481.794V482.375L196.427 482.377L196.426 463.912Z" fill="#2F2E41"/>
<path d="M191.254 272.258C191.254 272.258 185.253 279.239 195.189 306.45L193.439 455.655L225.639 455.008L232.716 382.227L245.603 276.019L191.254 272.258Z" fill="#2F2E41"/>
<path d="M159.105 248.705C157.203 248.699 155.377 247.931 154.016 246.564C152.655 245.196 151.865 243.336 151.815 241.379L150.304 182.774L176.159 132.292C176.746 131.155 177.605 130.191 178.655 129.491C179.705 128.791 180.911 128.378 182.159 128.292L201.863 126.99L200.162 245.122L159.746 248.677C159.531 248.696 159.318 248.705 159.105 248.705Z" fill="#D81E05"/>
<path d="M256.646 292.887L256.294 292.831C215.102 286.366 184.017 280.168 183.708 280.106L183.322 280.029L194.12 252.999C194.035 250.175 191.697 170.863 196.172 148.075C200.504 126.016 220.922 122.401 223.249 122.061L225.585 114.094L255.101 129.901L260.249 148.134L261.295 198.107L256.646 292.887Z" fill="#3F3D56"/>
<path d="M216.084 217.231C197.067 217.231 181.596 195.952 181.596 169.796C181.596 143.641 197.067 122.362 216.084 122.362C235.101 122.362 250.572 143.641 250.572 169.796C250.572 195.952 235.101 217.231 216.084 217.231ZM216.084 127.006C199.555 127.006 186.108 146.201 186.108 169.796C186.108 193.391 199.555 212.587 216.084 212.587C232.612 212.587 246.06 193.391 246.06 169.796C246.06 146.201 232.613 127.006 216.084 127.006Z" fill="#D81E05"/>
<path d="M274.424 190.03C273.095 190.03 271.78 190.313 270.562 190.861C269.344 191.409 268.25 192.211 267.348 193.215H217.736L199.563 197.196L202.547 220.88L267.192 206.572C268.262 207.816 269.618 208.764 271.136 209.33C272.654 209.896 274.285 210.061 275.881 209.811C277.478 209.561 278.987 208.904 280.273 207.899C281.559 206.894 282.58 205.574 283.242 204.059C283.905 202.544 284.188 200.882 284.066 199.225C283.944 197.568 283.42 195.97 282.543 194.575C281.666 193.18 280.464 192.033 279.045 191.239C277.627 190.445 276.038 190.03 274.424 190.03Z" fill="#9F616A"/>
<path d="M270.781 110.738C280.119 101.129 280.119 85.5483 270.781 75.9386C261.443 66.329 246.304 66.329 236.967 75.9386C227.629 85.5483 227.629 101.129 236.967 110.738C246.304 120.348 261.443 120.348 270.781 110.738Z" fill="#9F616A"/>
<path d="M231.386 73.6664L230.227 71.2654L236.059 68.2831C236.059 68.2831 242.494 57.5087 254.137 60.5366C265.78 63.5644 271.018 65.3765 271.018 65.3765L276.836 68.3891L273.916 71.379L279.154 73.1911L275.655 74.9805L279.727 77.3891L277.535 89.7363C277.535 89.7363 273.894 80.3714 266.895 83.9502C259.896 87.529 247.094 82.1002 247.094 82.1002L235.971 104.253C235.971 104.253 233.677 96.4872 229.586 98.5579C229.585 98.5579 219.134 81.428 231.386 73.6664Z" fill="#2F2E41"/>
<path d="M439.144 225.157L438.123 205.431L427.808 196.807L421.833 215.073L388.413 260.944C386.833 261.205 385.359 261.926 384.164 263.022C382.97 264.118 382.106 265.543 381.674 267.128C381.241 268.714 381.26 270.394 381.726 271.969C382.193 273.544 383.088 274.949 384.306 276.017C385.524 277.085 387.014 277.772 388.599 277.996C390.184 278.22 391.799 277.972 393.251 277.281C394.704 276.591 395.934 275.486 396.796 274.099C397.658 272.711 398.115 271.098 398.114 269.452C398.114 269.336 398.102 269.223 398.098 269.108L439.144 225.157Z" fill="#FFB7B7"/>
<path d="M459.006 473.767L451.103 473.766L447.343 442.394L459.007 442.395L459.006 473.767Z" fill="#FFB7B7"/>
<path d="M461.021 481.651L435.538 481.65V481.318C435.539 478.611 436.584 476.014 438.444 474.1C440.304 472.186 442.827 471.11 445.457 471.11H445.458L461.022 471.111L461.021 481.651Z" fill="#2F2E41"/>
<path d="M495.75 473.767L487.847 473.766L484.087 442.394L495.751 442.395L495.75 473.767Z" fill="#FFB7B7"/>
<path d="M497.766 481.651L472.283 481.65V481.318C472.283 478.611 473.328 476.014 475.188 474.1C477.048 472.186 479.571 471.11 482.201 471.11H482.202L497.766 471.111L497.766 481.651Z" fill="#2F2E41"/>
<path d="M487.397 142.753C490.743 128.535 493.578 112.498 487.267 99.4032C482.889 90.3173 466.692 87.2576 457.407 90.5309C448.122 93.8042 441.409 102.685 438.456 112.368C435.504 122.05 435.847 132.484 437.134 142.55C454.21 142.213 471.287 141.875 487.397 142.753Z" fill="#2F2E41"/>
<path d="M468.132 140.237C477.781 134.809 481.328 122.357 476.053 112.426C470.778 102.495 458.679 98.8453 449.029 104.274C439.379 109.703 435.833 122.154 441.108 132.085C446.383 142.016 458.482 145.666 468.132 140.237Z" fill="#FFB8B8"/>
<path d="M482.923 118.034C482.987 114.585 482.376 111.158 481.127 107.957C479.878 104.756 478.016 101.846 475.653 99.3993C473.289 96.953 470.472 95.0207 467.369 93.717C464.265 92.4134 460.939 91.765 457.587 91.8105C454.235 91.8559 450.927 92.5943 447.858 93.9817C444.789 95.3691 442.022 97.3772 439.722 99.8867C437.422 102.396 435.636 105.356 434.469 108.59C433.303 111.824 432.78 115.266 432.931 118.712C449.975 118.75 467.019 118.787 482.923 118.034Z" fill="#2F2E41"/>
<path d="M426.604 245.721C426.604 245.721 423.363 294.158 425.122 308.934C426.88 323.71 446.027 452.885 446.027 452.885L460.47 452.859L464.758 300.634L481.837 454.338L496.773 452.74L505.246 302.389C505.246 302.389 503.917 246.1 493.118 240.456L426.604 245.721Z" fill="#2F2E41"/>
<path d="M449.258 293.736C438.65 293.732 428.195 291.126 418.76 286.135L418.554 286.027L426.537 231.512L426.019 166.541C426.005 164.758 426.336 162.989 426.993 161.339C427.65 159.689 428.619 158.19 429.845 156.929C431.071 155.669 432.529 154.673 434.133 153.998C435.737 153.324 437.456 152.985 439.189 153.001L482.025 153.406C483.922 153.424 485.795 153.843 487.527 154.638C489.259 155.432 490.814 156.586 492.095 158.025C493.376 159.465 494.355 161.161 494.971 163.006C495.588 164.852 495.829 166.809 495.679 168.755L491.67 220.84L504.927 263.116L502.623 266.268C496.411 274.796 488.354 281.718 479.092 286.486C469.829 291.254 459.615 293.736 449.258 293.736Z" fill="#3F3D56"/>
<path d="M421.715 209.053L426.204 161.915L427.646 159.803C428.634 158.356 429.891 157.124 431.343 156.178C432.795 155.232 434.414 154.59 436.108 154.29C437.801 153.99 439.536 154.037 441.212 154.428C442.888 154.819 444.472 155.548 445.874 156.571L447.11 157.474L445.89 205.243L421.715 209.053Z" fill="#3F3D56"/>
<path d="M605.646 439.348C617.25 436.049 622.202 454.184 610.627 457.588C599.023 460.887 594.071 442.752 605.646 439.348Z" fill="#3F3D56"/>
<path d="M541.306 462.689C552.91 459.39 557.862 477.525 546.287 480.93C534.684 484.228 529.732 466.093 541.306 462.689Z" fill="#3F3D56"/>
<path d="M515.267 271.42L515.446 271.368L545.336 354.881L549.277 353.741L519.173 269.629C519.107 268.333 518.613 267.098 517.772 266.131C516.932 265.163 515.794 264.521 514.55 264.31C499.602 261.877 493.543 275.533 493.543 275.533L493.603 275.624L524.161 361.006L528.102 359.866L498.443 276.996C507.472 267.805 515.267 271.42 515.267 271.42Z" fill="#3F3D56"/>
<path d="M549.523 467.387C545.259 467.349 541.117 465.91 537.702 463.281C534.287 460.652 531.777 456.969 530.538 452.77C524.833 433.554 511.373 387.512 509.59 375.017C507.268 358.749 520.352 354.122 520.644 354.023C520.996 353.901 526.257 352.386 533.537 350.289C545.914 346.724 564.617 341.337 565.305 341.019C568.203 339.982 571.278 339.572 574.337 339.815C577.396 340.059 580.373 340.949 583.082 342.432C585.874 343.943 588.338 346.023 590.325 348.546C592.311 351.068 593.778 353.979 594.638 357.103L613.89 427.593C615.078 431.915 614.745 436.529 612.949 440.622C611.154 444.715 608.011 448.024 604.076 449.966C589.221 457.311 567.434 467.108 549.816 467.385C549.719 467.386 549.62 467.387 549.523 467.387Z" fill="#D81E05"/>
<path d="M512.088 268.531L502.41 210.351L501.33 190.715L485.684 195.99L498.88 272.173C498.347 273.656 498.221 275.261 498.515 276.812C498.809 278.364 499.512 279.802 500.546 280.97C501.581 282.139 502.908 282.991 504.382 283.436C505.856 283.88 507.421 283.899 508.904 283.49C510.388 283.08 511.734 282.259 512.794 281.116C513.855 279.973 514.59 278.552 514.919 277.007C515.248 275.463 515.157 273.856 514.658 272.361C514.159 270.866 513.27 269.541 512.088 268.531V268.531Z" fill="#FFB7B7"/>
<path d="M505.057 206.701L480.636 205.334L474.899 157.914L475.457 157.416C476.832 156.188 478.43 155.252 480.157 154.661C481.885 154.071 483.709 153.837 485.524 153.974C487.34 154.111 489.111 154.615 490.737 155.458C492.362 156.301 493.81 157.466 494.997 158.887L496.126 160.239L496.143 160.324L505.057 206.701Z" fill="#3F3D56"/>
<path d="M604.504 438.338L579.544 351.395L520.85 368.465L520.5 367.189L580.419 349.762L580.6 350.391L605.74 437.962L604.504 438.338Z" fill="#3F3D56"/>
<path d="M160.968 242.471L158.31 182.829L185.535 128.061L186.682 128.665L159.614 183.12L162.256 242.41L160.968 242.471Z" fill="#3F3D56"/>
<path d="M661.355 483H67.6446C67.4737 483 67.3097 482.93 67.1888 482.806C67.0679 482.681 67 482.513 67 482.337C67 482.161 67.0679 481.992 67.1888 481.867C67.3097 481.743 67.4737 481.673 67.6446 481.673H661.355C661.526 481.673 661.69 481.743 661.811 481.867C661.932 481.992 662 482.161 662 482.337C662 482.513 661.932 482.681 661.811 482.806C661.69 482.93 661.526 483 661.355 483Z" fill="#CCCCCC"/>
<path d="M202.864 225.319L197.191 207.951L195.818 150.055L198.236 141.841C199.106 138.884 200.547 136.139 202.473 133.769C204.399 131.4 206.769 129.455 209.443 128.051C212.117 126.647 215.038 125.813 218.033 125.599C221.027 125.385 224.033 125.795 226.87 126.805C229.706 127.815 232.316 129.404 234.541 131.477C236.767 133.549 238.563 136.063 239.822 138.867C241.081 141.672 241.777 144.709 241.868 147.796C241.96 150.884 241.444 153.959 240.353 156.837L227.396 191.007L228.055 192.322L256.126 192.088L266.097 210.56L202.864 225.319Z" fill="#3F3D56"/>
<path d="M381.69 348.915L381.67 348.919L350.557 355.329L323.792 366.421C323.446 366.565 323.076 366.637 322.703 366.633C322.33 366.629 321.962 366.55 321.618 366.399C321.275 366.249 320.964 366.03 320.703 365.756C320.442 365.482 320.236 365.158 320.096 364.802C320.064 364.718 320.035 364.633 320.01 364.546L300.457 297.168C300.251 296.47 300.308 295.718 300.616 295.061C300.923 294.404 301.459 293.889 302.118 293.62L329.372 282.324L329.392 282.32L360.505 275.91L387.269 264.817C387.968 264.528 388.75 264.536 389.443 264.839C390.137 265.143 390.684 265.718 390.965 266.437C390.998 266.521 391.027 266.606 391.052 266.692L410.605 334.071C410.81 334.769 410.754 335.521 410.446 336.178C410.139 336.835 409.603 337.349 408.944 337.619L381.69 348.915Z" fill="#E5E5E5"/>
<path d="M348.303 303.656C341.169 301.064 333.794 298.794 326.387 296.909L326.015 296.814L329.776 309.775L348.937 303.886L348.303 303.656ZM330.069 309.215L326.653 297.441C333.703 299.247 340.719 301.402 347.524 303.85L330.069 309.215ZM385.69 321.175C382.369 319.242 379 317.392 375.583 315.623C374.641 315.134 373.696 314.653 372.748 314.179C366.963 311.282 361.089 308.642 355.126 306.257L355.057 306.229L330.901 313.653L337.498 336.385L386.137 321.435L385.69 321.175ZM337.791 335.825L331.445 313.955L355.038 306.704C360.788 309.005 366.472 311.554 372.09 314.351C373.065 314.836 374.037 315.328 375.006 315.828C378.389 317.572 381.73 319.398 385.027 321.307L337.791 335.825ZM385.69 321.175C382.369 319.242 379 317.392 375.583 315.623C374.641 315.134 373.696 314.653 372.748 314.179C366.963 311.282 361.089 308.642 355.126 306.257L355.057 306.229L330.901 313.653L337.498 336.385L386.137 321.435L385.69 321.175ZM337.791 335.825L331.445 313.955L355.038 306.704C360.788 309.005 366.472 311.554 372.09 314.351C373.065 314.836 374.037 315.328 375.006 315.828C378.389 317.572 381.73 319.398 385.027 321.307L337.791 335.825ZM348.303 303.656C341.169 301.064 333.794 298.794 326.387 296.909L326.015 296.814L329.776 309.775L348.937 303.886L348.303 303.656ZM330.069 309.215L326.653 297.441C333.703 299.247 340.719 301.402 347.524 303.85L330.069 309.215ZM348.303 303.656C341.169 301.064 333.794 298.794 326.387 296.909L326.015 296.814L329.776 309.775L348.937 303.886L348.303 303.656ZM330.069 309.215L326.653 297.441C333.703 299.247 340.719 301.402 347.524 303.85L330.069 309.215ZM385.69 321.175C382.369 319.242 379 317.392 375.583 315.623C374.641 315.134 373.696 314.653 372.748 314.179C366.963 311.282 361.089 308.642 355.126 306.257L355.057 306.229L330.901 313.653L337.498 336.385L386.137 321.435L385.69 321.175ZM337.791 335.825L331.445 313.955L355.038 306.704C360.788 309.005 366.472 311.554 372.09 314.351C373.065 314.836 374.037 315.328 375.006 315.828C378.389 317.572 381.73 319.398 385.027 321.307L337.791 335.825ZM317.898 346.633L318.023 347.064L334.561 341.981L336.374 348.229L319.836 353.312L319.962 353.743L336.918 348.532L334.855 341.421L317.898 346.633ZM341.812 351.252L343.079 355.618L343.486 355.449L342.356 351.554L406.84 331.735L406.715 331.304L341.812 351.252ZM403.651 320.746L403.526 320.315L338.623 340.263L340.686 347.373L405.589 327.426L405.464 326.995L340.98 346.814L339.167 340.565L403.651 320.746ZM355.45 301.415C345.566 297.506 335.413 294.361 325.075 292.005L323.809 287.642L323.402 287.81L324.678 292.207L325.106 292.473C335.404 294.826 345.517 297.964 355.363 301.861L355.432 301.889L394.679 289.827L394.554 289.396L355.45 301.415ZM325.463 310.631L308.926 315.713L309.051 316.144L326.007 310.933L319.738 289.328L319.331 289.497L325.463 310.631ZM395.804 293.705L361.302 304.309L361.864 304.552C367.156 306.844 372.434 309.377 377.698 312.152C378.446 312.546 379.194 312.946 379.941 313.351C383.657 315.359 387.344 317.479 391.003 319.711L391.409 319.815L402.401 316.437L402.275 316.006L391.31 319.376C387.69 317.166 384.037 315.062 380.35 313.064C379.613 312.664 378.874 312.269 378.135 311.878C372.982 309.154 367.801 306.655 362.593 304.382L395.929 294.136L395.804 293.705ZM321.087 357.621L321.212 358.052L337.75 352.969L339.008 357.305L339.415 357.136L338.043 352.41L321.087 357.621ZM310.176 320.023L310.301 320.454L326.839 315.371L333.185 337.241L316.648 342.323L316.773 342.754L333.729 337.543L327.133 314.811L310.176 320.023ZM348.303 303.656C341.169 301.064 333.794 298.794 326.387 296.909L326.015 296.814L329.776 309.775L348.937 303.886L348.303 303.656ZM330.069 309.215L326.653 297.441C333.703 299.247 340.719 301.402 347.524 303.85L330.069 309.215ZM385.69 321.175C382.369 319.242 379 317.392 375.583 315.623C374.641 315.134 373.696 314.653 372.748 314.179C366.963 311.282 361.089 308.642 355.126 306.257L355.057 306.229L330.901 313.653L337.498 336.385L386.137 321.435L385.69 321.175ZM337.791 335.825L331.445 313.955L355.038 306.704C360.788 309.005 366.472 311.554 372.09 314.351C373.065 314.836 374.037 315.328 375.006 315.828C378.389 317.572 381.73 319.398 385.027 321.307L337.791 335.825ZM348.303 303.656C341.169 301.064 333.794 298.794 326.387 296.909L326.015 296.814L329.776 309.775L348.937 303.886L348.303 303.656ZM330.069 309.215L326.653 297.441C333.703 299.247 340.719 301.402 347.524 303.85L330.069 309.215ZM385.69 321.175C382.369 319.242 379 317.392 375.583 315.623C374.641 315.134 373.696 314.653 372.748 314.179C366.963 311.282 361.089 308.642 355.126 306.257L355.057 306.229L330.901 313.653L337.498 336.385L386.137 321.435L385.69 321.175ZM337.791 335.825L331.445 313.955L355.038 306.704C360.788 309.005 366.472 311.554 372.09 314.351C373.065 314.836 374.037 315.328 375.006 315.828C378.389 317.572 381.73 319.398 385.027 321.307L337.791 335.825Z" fill="white"/>
<path d="M353.859 305.685C355.442 311.142 349.369 326.249 349.369 326.249C349.369 326.249 336.241 317.044 334.657 311.587C333.897 308.966 334.179 306.142 335.442 303.736C336.705 301.33 338.844 299.538 341.391 298.755C343.937 297.973 346.681 298.263 349.019 299.563C351.358 300.862 353.098 303.065 353.859 305.685H353.859Z" fill="#D81E05"/>
<path d="M348.522 306.857C348.782 307.751 348.778 308.703 348.511 309.594C348.244 310.485 347.727 311.275 347.024 311.863C346.321 312.452 345.465 312.812 344.563 312.9C343.661 312.987 342.754 312.797 341.957 312.354C341.16 311.911 340.508 311.235 340.085 310.411C339.661 309.586 339.484 308.652 339.577 307.724C339.67 306.797 340.028 305.918 340.605 305.2C341.183 304.482 341.955 303.956 342.823 303.69C343.399 303.512 344.004 303.453 344.602 303.516C345.201 303.58 345.781 303.764 346.311 304.058C346.84 304.352 347.308 304.751 347.687 305.231C348.067 305.711 348.351 306.264 348.522 306.857Z" fill="white"/>
<path d="M350.666 333.497C352.157 333.497 353.367 332.252 353.367 330.717C353.367 329.182 352.157 327.937 350.666 327.937C349.174 327.937 347.965 329.182 347.965 330.717C347.965 332.252 349.174 333.497 350.666 333.497Z" fill="#D81E05"/>
<path d="M380.138 294.169L361.367 299.938C361.343 299.946 361.319 299.951 361.295 299.954L365.58 281.4C365.606 281.284 365.661 281.178 365.739 281.092C365.818 281.006 365.917 280.942 366.027 280.909C366.137 280.875 366.254 280.872 366.365 280.899C366.477 280.927 366.579 280.985 366.662 281.067L375.702 289.856L376.135 290.277L380.138 294.169Z" fill="white"/>
<path opacity="0.2" d="M380.138 294.169L373.729 296.139L375.51 290.469L375.638 290.06L375.703 289.856L376.135 290.277L380.138 294.169Z" fill="black"/>
<path d="M390.589 290.957L374.354 295.947L376.135 290.277L376.263 289.868L378.584 282.479C378.63 282.363 378.698 282.259 378.786 282.172C378.873 282.085 378.977 282.018 379.091 281.975C379.205 281.932 379.326 281.914 379.448 281.923C379.569 281.932 379.687 281.966 379.794 282.025C379.822 282.043 379.849 282.062 379.875 282.083L390.589 290.957Z" fill="white"/>
</g>
<defs>
<linearGradient id="paint0_linear_134:1956" x1="262.581" y1="24.6183" x2="415.066" y2="477.788" gradientUnits="userSpaceOnUse">
<stop stop-color="#D81E05" stop-opacity="0.25"/>
<stop offset="0.477083" stop-color="#D81E05" stop-opacity="0.25"/>
</linearGradient>
<clipPath id="clip0_134:1956">
<rect width="595" height="423" fill="white" transform="translate(67 60)"/>
</clipPath>
</defs>
</svg>
