<svg width="808" height="455" viewBox="0 0 808 455" fill="none" xmlns="http://www.w3.org/2000/svg">
<path d="M179.014 211.147C213.298 211.147 241.091 184.094 241.091 150.723C241.091 117.352 213.298 90.2999 179.014 90.2999C144.73 90.2999 116.937 117.352 116.937 150.723C116.937 184.094 144.73 211.147 179.014 211.147Z" fill="#FF6584"/>
<path d="M794.303 429.845C790.652 433.042 786.813 436.029 782.804 438.789C773.289 445.302 763.006 450.683 752.177 454.815C707.17 453.761 641.007 448.387 557.492 445.52C551.262 443.447 544.891 441.204 538.378 438.789C529.759 435.592 520.892 432.079 511.778 428.25C473.925 412.329 435.062 401.98 396.567 395.797C388.294 394.469 380.044 393.331 371.815 392.382C197.984 372.148 37.6794 431.601 19.1139 438.789H17.3237L28.7431 417.261L223.046 50.9543L268.485 164.508L282.986 200.755L322.954 147.372L343.591 119.809L437.574 224.686L464.137 167.586L648.045 313.67L658.302 321.813L668.682 330.062L671.988 332.69L770.309 410.79L794.303 429.845Z" fill="#F2F2F2"/>
<path opacity="0.1" d="M205.722 124.728L224.489 84.6794L250.475 142.995L228.098 100.839L205.722 124.728Z" fill="black"/>
<path opacity="0.1" d="M396.567 395.797C388.295 394.469 380.044 393.331 371.815 392.382L282.987 200.755L396.567 395.797Z" fill="black"/>
<path opacity="0.1" d="M322.955 147.372L343.592 131.754L437.43 237.143L342.148 147.211L322.955 147.372Z" fill="black"/>
<path opacity="0.1" d="M437.572 224.684L625.106 399.444L599.455 405.332L437.572 224.684Z" fill="black"/>
<path d="M820 439.14C820 452.75 796.208 455.848 752.177 454.815C707.171 453.762 641.008 448.387 557.492 445.52C525.904 444.438 491.827 443.707 455.475 443.707C229.037 443.707 0 471.931 0 439.14C0 431.412 10.1923 424.035 28.7433 417.261C83.7468 397.181 212.218 382.476 366.127 380.108C373.129 379.996 380.181 379.914 387.284 379.862C394.806 379.799 402.378 379.768 410 379.771C471.19 379.771 529.254 381.71 581.406 385.188C581.572 385.202 581.731 385.216 581.897 385.223C586.083 385.504 590.229 385.794 594.334 386.094C598.817 386.424 603.251 386.764 607.637 387.113C608.54 387.183 609.442 387.253 610.337 387.331C610.987 387.38 611.636 387.436 612.279 387.492C613.463 387.584 614.646 387.682 615.816 387.787C615.857 387.786 615.898 387.788 615.938 387.794C618.089 387.977 620.226 388.16 622.348 388.342C622.572 388.364 622.796 388.385 623.02 388.399C684.7 393.844 735.676 401.579 770.309 410.79C801.998 419.215 820 428.868 820 439.14Z" fill="#3F3D56"/>
<path d="M51.1685 321.918C51.1685 366.896 80.1575 403.291 115.982 403.291L51.1685 321.918Z" fill="#3F3D56"/>
<path d="M115.982 403.291C115.982 357.808 148.332 321.004 188.31 321.004L115.982 403.291Z" fill="#D81E05"/>
<path d="M74.6514 325.996C74.6514 368.72 93.1371 403.291 115.982 403.291L74.6514 325.996Z" fill="#D81E05"/>
<path d="M115.982 403.291C115.982 345.174 153.373 298.146 199.582 298.146L115.982 403.291Z" fill="#3F3D56"/>
<path d="M102.347 403.865C102.347 403.865 111.538 403.59 114.308 401.67C117.079 399.749 128.448 397.457 129.135 400.536C129.822 403.615 142.948 415.851 132.571 415.933C122.193 416.014 108.458 414.359 105.694 412.72C102.929 411.081 102.347 403.865 102.347 403.865Z" fill="#A8A8A8"/>
<path opacity="0.2" d="M132.756 414.861C122.379 414.942 108.644 413.287 105.879 411.648C103.773 410.4 102.934 405.92 102.654 403.853C102.459 403.862 102.347 403.865 102.347 403.865C102.347 403.865 102.929 411.081 105.694 412.72C108.458 414.359 122.193 416.014 132.571 415.933C135.566 415.909 136.601 414.872 136.544 413.335C136.128 414.264 134.986 414.843 132.756 414.861Z" fill="black"/>
<path d="M550.675 315.595C550.675 360.573 579.664 396.968 615.489 396.968L550.675 315.595Z" fill="#3F3D56"/>
<path d="M615.489 396.968C615.489 351.485 647.839 314.681 687.818 314.681L615.489 396.968Z" fill="#D81E05"/>
<path d="M574.159 319.672C574.159 362.396 592.644 396.968 615.489 396.968L574.159 319.672Z" fill="#D81E05"/>
<path d="M615.489 396.968C615.489 338.851 652.881 291.823 699.09 291.823L615.489 396.968Z" fill="#3F3D56"/>
<path d="M601.854 397.542C601.854 397.542 611.046 397.266 613.816 395.346C616.586 393.426 627.955 391.134 628.642 394.213C629.329 397.292 642.455 409.528 632.078 409.609C621.701 409.691 607.966 408.036 605.201 406.397C602.436 404.757 601.854 397.542 601.854 397.542Z" fill="#A8A8A8"/>
<path opacity="0.2" d="M632.263 408.537C621.886 408.619 608.151 406.964 605.386 405.325C603.281 404.076 602.442 399.597 602.161 397.53C601.966 397.538 601.854 397.542 601.854 397.542C601.854 397.542 602.436 404.757 605.201 406.397C607.966 408.036 621.701 409.691 632.078 409.609C635.074 409.586 636.108 408.548 636.052 407.012C635.635 407.94 634.493 408.52 632.263 408.537Z" fill="black"/>
<path d="M360.194 309.48H347.201V332.025H360.194V309.48Z" fill="#3F3D56"/>
<path d="M353.697 318.003C355.101 318.003 356.239 316.895 356.239 315.529C356.239 314.162 355.101 313.054 353.697 313.054C352.293 313.054 351.155 314.162 351.155 315.529C351.155 316.895 352.293 318.003 353.697 318.003Z" fill="#F2F2F2"/>
<path d="M355.273 290.215C355.273 290.215 351.318 312.54 358.436 313.31C365.554 314.08 359.227 289.445 359.227 289.445L355.273 290.215Z" fill="#FFB9B9"/>
<path d="M360.018 214.002C360.018 214.002 351.713 290.6 354.086 291.755C356.459 292.909 362.786 294.449 363.972 293.294C365.159 292.14 369.904 244.795 369.904 244.795L366.345 220.16L360.018 214.002Z" fill="#575A89"/>
<path opacity="0.1" d="M360.018 214.002C360.018 214.002 351.713 290.6 354.086 291.755C356.459 292.909 362.786 294.449 363.972 293.294C365.159 292.14 369.904 244.795 369.904 244.795L366.345 220.16L360.018 214.002Z" fill="black"/>
<path d="M400.156 179.552H375.243V205.726H400.156V179.552Z" fill="#2F2E41"/>
<path d="M380.977 191.292C380.977 191.292 380.186 208.228 374.65 209.383C369.113 210.538 379.79 230.168 379.79 230.168L396.399 228.629L400.354 205.534C400.354 205.534 391.258 203.994 394.422 192.062L380.977 191.292Z" fill="#FFB9B9"/>
<path opacity="0.1" d="M380.977 191.292C380.977 191.292 380.186 208.228 374.65 209.383C369.113 210.538 379.79 230.168 379.79 230.168L396.399 228.629L400.354 205.534C400.354 205.534 391.258 203.994 394.422 192.062L380.977 191.292Z" fill="black"/>
<path d="M381.768 384.904L382.954 391.448L390.072 389.908L388.49 383.364L381.768 384.904Z" fill="#FFB9B9"/>
<path d="M404.308 374.896L401.936 381.825L409.449 385.674L409.845 379.9L404.308 374.896Z" fill="#FFB9B9"/>
<path d="M373.463 270.969C373.463 270.969 363.972 297.913 365.95 310.615C367.927 323.318 375.836 383.749 375.836 383.749C375.836 383.749 384.931 389.523 390.468 382.979L386.513 331.401C386.513 331.401 387.304 300.223 390.468 303.302C393.631 306.381 405.89 342.563 405.89 342.563L403.518 375.281C403.518 375.281 404.704 385.289 411.822 381.055L421.708 344.873C421.708 344.873 418.545 296.374 416.963 294.449C415.381 292.524 405.099 270.199 405.099 270.199L373.463 270.969Z" fill="#2F2E41"/>
<path d="M389.083 198.798C395.417 198.798 400.551 193.8 400.551 187.635C400.551 181.47 395.417 176.473 389.083 176.473C382.75 176.473 377.615 181.47 377.615 187.635C377.615 193.8 382.75 198.798 389.083 198.798Z" fill="#FFB9B9"/>
<path d="M377.418 215.157C377.418 215.157 381.768 221.315 387.304 217.081C392.84 212.847 396.004 212.462 396.004 212.462L402.727 216.311L401.145 231.323L403.518 272.894C403.518 272.894 374.65 275.203 373.068 272.124C371.486 269.045 375.045 255.958 375.045 255.958L369.904 227.859V215.157H377.418Z" fill="#D81E05"/>
<path d="M386.513 226.319C386.513 226.319 379.395 205.149 377.022 204.764C374.649 204.379 367.927 208.998 367.927 208.998C367.927 208.998 358.041 212.077 358.041 214.002C358.041 215.926 359.622 215.926 359.622 215.926L365.159 226.319C365.159 226.319 367.531 235.557 366.74 241.716C366.263 245.417 366.131 249.153 366.345 252.878C366.345 252.878 357.645 303.687 361.995 305.227C366.345 306.766 366.345 308.306 366.345 308.306C366.345 308.306 372.672 311.77 373.859 310.231C375.045 308.691 386.513 242.486 386.513 242.486C386.513 242.486 392.445 231.323 386.513 226.319Z" fill="#575A89"/>
<path d="M388.095 226.319C388.095 226.319 391.654 218.236 389.676 212.847C389.676 212.847 391.654 212.462 392.445 211.307C393.236 210.153 392.445 204.379 394.422 203.994C396.399 203.609 411.031 203.994 411.822 204.764C412.613 205.534 414.985 210.922 414.985 210.922H413.799L405.099 224.779C405.099 224.779 409.449 250.954 408.658 255.188C407.867 259.422 420.126 277.128 421.708 278.283C423.29 279.437 430.408 297.913 427.244 299.838C424.081 301.762 396.399 314.08 395.213 307.921C394.026 301.762 385.722 264.811 385.722 264.811C385.722 264.811 385.327 244.41 386.513 239.406C387.699 234.402 388.095 226.319 388.095 226.319Z" fill="#575A89"/>
<path d="M406.681 287.905C406.681 287.905 398.377 314.465 406.681 313.31C414.986 312.155 413.008 287.136 413.008 287.136L406.681 287.905Z" fill="#FFB9B9"/>
<path d="M389.299 389.922C389.299 389.922 395.855 391.745 395.387 395.847C395.24 397.039 394.774 398.173 394.034 399.133C393.294 400.093 392.307 400.847 391.172 401.317C390.486 401.752 389.943 402.37 389.611 403.098C389.278 403.826 389.17 404.633 389.299 405.42C389.767 408.155 385.552 412.257 378.528 410.434C371.503 408.611 372.908 406.787 372.908 406.787C373.29 404.765 374.466 402.967 376.186 401.773C378.996 399.95 382.274 393.568 382.274 393.112C382.274 392.657 383.211 389.466 383.211 389.466C383.211 389.466 386.957 387.187 389.299 389.922Z" fill="#2F2E41"/>
<path d="M403.122 381.055C403.122 381.055 396.004 384.134 397.586 387.983C399.168 391.832 404.308 397.221 405.099 402.995C405.89 408.769 412.613 413.773 417.358 410.693C422.104 407.614 416.567 401.455 416.567 401.455C416.567 401.455 410.636 390.678 410.24 388.368C409.845 386.059 411.031 383.749 408.658 382.979C406.286 382.21 403.122 381.055 403.122 381.055Z" fill="#2F2E41"/>
<path opacity="0.1" d="M413.601 214.964C413.601 214.964 412.613 210.538 413.799 213.232C414.986 215.926 423.685 248.644 415.776 268.275C415.776 268.275 414.986 292.524 414.195 292.524C413.404 292.524 403.913 292.14 404.308 289.445C404.704 286.751 405.495 243.255 405.495 240.561C405.495 237.867 406.879 220.353 406.879 220.353L413.601 214.964Z" fill="black"/>
<path d="M411.822 208.228C413.089 209.759 414.152 211.441 414.985 213.232C416.172 215.926 424.872 248.644 416.963 268.275C416.963 268.275 416.172 292.524 415.381 292.524C414.59 292.524 405.099 292.14 405.494 289.445C405.89 286.751 406.681 243.255 406.681 240.561C406.681 237.867 404.308 219.776 404.308 219.776L411.822 208.228Z" fill="#575A89"/>
<path d="M382.618 167.983C378.469 169.246 375.371 172.545 372.484 175.708C371.361 176.827 370.408 178.096 369.655 179.477C368.922 181.238 368.534 183.118 368.513 185.018C368.32 187.963 368.259 190.912 368.328 193.866C368.395 196.696 368.573 199.596 367.679 202.29C366.815 204.894 365.017 207.095 363.782 209.553C361.811 213.474 361.356 218.232 363.175 222.222C364.177 224.418 365.797 226.288 367.008 228.382C369.149 232.11 369.942 236.431 369.26 240.651L374.954 233.47C378.602 228.872 382.364 224.026 383.39 218.303C384.879 210.001 380.329 201.87 379.431 193.489C379.181 191.152 379.265 188.628 380.624 186.686C382.63 183.819 386.994 182.807 388.2 179.543C388.374 180.91 396.786 185.262 397.799 184.416C398.422 186.052 398.603 187.817 398.325 189.541C398.047 191.265 397.318 192.891 396.21 194.262C395.396 195.246 394.395 196.074 393.601 197.074C391.544 199.662 391.076 203.152 391.367 206.412C391.657 209.672 392.621 212.838 393.131 216.072C393.562 219.293 393.767 222.538 393.747 225.785C393.784 228.033 393.721 230.542 392.101 232.145C394.758 231.239 397.184 229.791 399.22 227.898C400.324 226.728 401.51 225.634 402.77 224.623C405.317 222.834 408.768 222.304 410.846 220.011C412.702 217.964 412.997 214.961 412.562 212.265C412.126 209.568 411.063 207.003 410.529 204.323C409.853 200.915 410.042 197.397 411.079 194.076C411.835 191.664 413.042 189.339 413.19 186.821C413.491 181.685 409.423 177.389 405.512 173.93C399.652 168.748 390.577 165.561 382.618 167.983Z" fill="#2F2E41"/>
<path d="M718.507 73.3278C715.001 74.5878 708.847 75.6184 701.722 76.4505C682.349 78.7132 655.799 79.5165 655.799 79.5165C655.799 79.5165 519.354 90.5325 417.085 49.5642C417.085 49.5642 402.21 41.9716 416.027 31.7578C418.15 30.2292 420.408 28.8872 422.775 27.7476C422.775 27.7476 422.832 27.691 422.945 27.5857C424.515 26.1728 426.212 24.8998 428.015 23.782C433.312 20.4488 442.259 16.4942 453.146 18.2854L721.733 60.5723C721.733 60.5723 731.544 68.6404 718.507 73.3278Z" fill="#F2F2F2"/>
<path d="M664.987 54.1649L721.217 15.3315L746.001 19.5034L721.733 60.5718C721.733 60.5718 665.633 61.0063 664.987 54.1649Z" fill="#F2F2F2"/>
<path d="M523.421 30.575L635.424 0L653.479 3.67178L602.885 25.8247L587.07 43.044L523.421 30.575Z" fill="#F2F2F2"/>
<path d="M701.722 76.4505C682.349 78.7132 655.799 79.5165 655.799 79.5165C655.799 79.5165 519.354 90.5325 417.085 49.5642C417.085 49.5642 402.21 41.9716 416.027 31.7578L416.074 31.9445C416.074 31.9445 438.14 46.4614 543.576 58.5825L701.722 76.4505Z" fill="#F2F2F2"/>
<path d="M683.717 75.611L733.795 95.5112L746.373 94.1516L716.42 72.2416C716.42 72.2416 680.192 64.7211 683.717 75.611Z" fill="#F2F2F2"/>
<path d="M434.213 34.0702C431.822 34.111 426.348 30.2089 422.945 27.5857C424.515 26.1728 426.212 24.8998 428.015 23.782C430.758 25.8313 435.641 29.1495 438.355 29.0314C442.273 28.8606 437.81 34.0097 434.213 34.0702Z" fill="#F2F2F2"/>
<path d="M661.704 144.407L629.555 146.043L539.167 86.7146L522.387 75.7007L514.231 70.348C529.525 57.7666 591.912 75.1136 591.912 75.1136C593.107 76.0951 593.486 77.7253 593.431 79.5254C593.329 82.8993 591.701 86.8704 591.073 88.2835C590.922 88.6241 590.83 88.8158 590.83 88.8158L661.704 144.407Z" fill="#F2F2F2"/>
<path d="M718.507 73.3278C715.001 74.5878 708.847 75.6184 701.722 76.4505C682.349 78.7132 655.799 79.5165 655.799 79.5165C655.799 79.5165 519.354 90.5325 417.085 49.5642C417.085 49.5642 402.21 41.9716 416.027 31.7578C418.15 30.2292 420.408 28.8872 422.775 27.7476C422.775 27.7476 422.832 27.691 422.945 27.5857C424.515 26.1728 426.212 24.8998 428.015 23.782C433.312 20.4488 442.259 16.4942 453.146 18.2854L721.733 60.5723C721.733 60.5723 731.544 68.6404 718.507 73.3278Z" fill="#3F3D56"/>
<path d="M664.987 54.1649L721.217 15.3315L746.001 19.5034L721.733 60.5718C721.733 60.5718 665.633 61.0063 664.987 54.1649Z" fill="#3F3D56"/>
<path d="M523.421 30.575L635.424 0L653.479 3.67178L602.885 25.8247L587.07 43.044L523.421 30.575Z" fill="#3F3D56"/>
<path d="M701.722 76.4505C682.349 78.7132 655.799 79.5165 655.799 79.5165C655.799 79.5165 519.354 90.5325 417.085 49.5642C417.085 49.5642 402.21 41.9716 416.027 31.7578L416.074 31.9445C416.074 31.9445 438.14 46.4614 543.576 58.5825L701.722 76.4505Z" fill="#D81E05"/>
<path d="M683.717 75.611L733.795 95.5112L746.373 94.1516L716.42 72.2416C716.42 72.2416 680.192 64.7211 683.717 75.611Z" fill="#3F3D56"/>
<path d="M434.213 34.0702C431.822 34.111 426.348 30.2089 422.945 27.5857C424.515 26.1728 426.212 24.8998 428.015 23.782C430.758 25.8313 435.641 29.1495 438.355 29.0314C442.273 28.8606 437.81 34.0097 434.213 34.0702Z" fill="#D81E05"/>
<path d="M661.704 144.407L629.555 146.043L539.167 86.7146L522.387 75.7007L514.231 70.348C529.525 57.7666 591.912 75.1136 591.912 75.1136C593.107 76.0951 593.486 77.7253 593.431 79.5254C593.329 82.8993 591.701 86.8704 591.073 88.2835C590.922 88.6241 590.83 88.8158 590.83 88.8158L661.704 144.407Z" fill="#3F3D56"/>
</svg>
