<svg width="24" height="22" viewBox="0 0 24 22" fill="none" xmlns="http://www.w3.org/2000/svg">
<path d="M23.167 5.11263C23.0677 7.56823 21.5142 10.925 18.5172 15.1845C15.4155 19.6384 12.7874 21.8639 10.6395 21.8639C9.31137 21.8639 8.1858 20.5099 7.26683 17.793C6.65105 15.3003 6.0393 12.8076 5.42487 10.3223C4.74067 7.60387 4.00818 6.24541 3.22471 6.24541C3.05433 6.24541 2.46002 6.64181 1.43506 7.4361L0.361816 5.90543C1.48604 4.81421 2.59417 3.71854 3.68754 2.62584C5.18473 1.19167 6.3103 0.438955 7.06157 0.360268C8.83243 0.170234 9.92446 1.51087 10.3363 4.37773C10.775 7.47322 11.0836 9.39732 11.2539 10.1515C11.7664 12.717 12.3272 13.9968 12.9416 13.9968C13.4179 13.9968 14.1343 13.1683 15.0895 11.51C16.0447 9.84865 16.5531 8.5867 16.6229 7.7167C16.7597 6.28253 16.2486 5.5699 15.0895 5.5699C14.5435 5.5699 13.98 5.69758 13.4018 5.96482C14.5287 1.92806 16.6752 -0.0346479 19.8466 0.0796702C22.1957 0.152418 23.3052 1.83304 23.167 5.11263Z" fill="#0A142F"/>
</svg>
