<svg width="24" height="18" viewBox="0 0 24 18" fill="none" xmlns="http://www.w3.org/2000/svg">
<path fill-rule="evenodd" clip-rule="evenodd" d="M21.8878 1.46622C22.5716 2.22719 22.7948 3.95524 22.7948 3.95524C22.7948 3.95524 23.023 5.98502 23.023 8.01401V9.91683C23.023 11.9466 22.7948 13.9756 22.7948 13.9756C22.7948 13.9756 22.5716 15.7037 21.8878 16.4646C21.1061 17.3648 20.2392 17.4578 19.7493 17.5104C19.6954 17.5162 19.646 17.5215 19.6019 17.5273C16.409 17.7812 11.6146 17.7891 11.6146 17.7891C11.6146 17.7891 5.6823 17.7295 3.85697 17.5367C3.77048 17.519 3.66564 17.5051 3.54692 17.4895C2.96873 17.4133 2.06123 17.2936 1.34071 16.4646C0.656928 15.7037 0.434465 13.9756 0.434465 13.9756C0.434465 13.9756 0.206299 11.9466 0.206299 9.91683V8.01401C0.206299 5.98502 0.434465 3.95524 0.434465 3.95524C0.434465 3.95524 0.656928 2.22719 1.34071 1.46622C2.12423 0.564743 2.99189 0.472737 3.4819 0.420778C3.53503 0.415144 3.58371 0.409981 3.62737 0.404309C6.82028 0.150391 11.6096 0.150391 11.6096 0.150391H11.6196C11.6196 0.150391 16.409 0.150391 19.6019 0.404309C19.6455 0.40999 19.6943 0.41516 19.7474 0.420803C20.2371 0.472767 21.1051 0.564889 21.8878 1.46622ZM9.25804 5.17578L9.25875 12.222L15.4228 8.71104L9.25804 5.17578Z" fill="#0A142F"/>
</svg>
