<svg width="243" height="48" viewBox="0 0 243 48" fill="none" xmlns="http://www.w3.org/2000/svg">
<g clip-path="url(#clip0_621:283)">
<path d="M25.4377 37.8462C22.194 45.6 16.0479 48 11.6091 48C5.12165 48 -1.02439 43.7538 0.170674 35.4462L1.53646 24C2.73152 15.5077 9.73118 12 16.2187 12C20.4867 12 25.9499 14.0308 26.8035 21.4154L17.5845 24.3692C17.4137 22.3385 16.2187 21.4154 14.8529 21.4154C13.3164 21.4154 11.7799 22.3385 11.6091 24.3692L10.0726 35.4462C9.9019 37.2923 11.097 38.4 12.4628 38.4C13.8285 38.4 15.5358 37.4769 16.3894 35.4462L25.4377 37.8462Z" fill="#D81E05"/>
<path d="M28.1694 24.7385C29.3644 16.2462 36.3641 12 43.0223 12C49.5098 12 55.4851 16.2462 54.4608 24.7385L52.9243 35.8154C51.8999 43.9385 44.7295 48 38.242 48C31.7546 48 25.7792 43.9385 26.8036 35.8154L28.1694 24.7385ZM38.4128 24.5538L37.047 35.8154C36.8763 37.4769 38.0713 38.4 39.4371 38.4C40.8029 38.4 42.3394 37.6615 42.5101 35.8154L43.8759 24.5538C44.0466 22.8923 42.6809 21.9692 41.4858 21.9692C40.2907 21.9692 38.5835 23.0769 38.4128 24.5538Z" fill="#D81E05"/>
<path d="M77.1669 12.9231L75.9718 22.3385C73.2403 21.2308 68.2893 21.7846 67.7771 25.6615L64.8748 47.2615H54.4607L57.1923 25.4769C58.3873 16.0615 64.1919 12 71.8745 12C73.0695 12 74.6061 12.1846 77.1669 12.9231Z" fill="#D81E05"/>
<path d="M94.4099 36.9231L99.3609 42.4616C94.9221 47.2616 90.4833 48.0001 86.7274 48.0001C80.2399 48.0001 74.2646 43.5693 75.2889 35.077L76.6547 25.1077C77.8498 16.4308 84.8494 11.8154 91.5076 11.8154C98.1659 11.8154 103.288 16.0616 102.092 24.5539C100.897 32.677 92.7027 36.0001 85.3616 34.1539C84.8494 39.5077 91.3369 39.877 94.4099 36.9231ZM86.386 27.6924C88.9468 28.9847 92.3613 28.0616 92.7027 24.5539C92.8734 22.8924 92.1905 21.4154 90.3126 21.4154C88.7761 21.4154 87.0688 22.5231 86.8981 24.5539L86.386 27.6924Z" fill="#D81E05"/>
<path d="M106.019 14.7692C109.604 13.1077 114.043 12 118.141 12C125.823 12 131.969 15.5077 130.774 25.1077L127.872 47.4462H117.458L120.36 25.2923C120.701 22.8923 119.165 22.1538 117.628 22.1538C116.945 22.1538 116.092 22.3385 115.409 22.5231L112.165 47.4462H101.751L106.019 14.7692Z" fill="#D81E05"/>
<path d="M157.578 45.0462C153.48 46.7077 148.7 48 143.92 48C137.262 48 131.286 44.8615 132.481 35.4462L134.018 23.6308C135.042 15.8769 141.017 12 147.163 12C148.529 12 149.895 12.1846 151.261 12.7385L152.968 0H163.553L157.578 45.0462ZM150.066 21.7846C149.554 21.6 148.871 21.4154 148.017 21.4154C146.481 21.4154 144.603 22.3385 144.261 24.3692L142.725 36.3692C142.554 38.4 144.09 39.1385 145.798 39.1385C146.481 39.1385 147.163 38.9538 147.846 38.7692L150.066 21.7846Z" fill="#D81E05"/>
<path d="M163.382 24.7385C164.577 16.2462 171.577 12 178.235 12C184.723 12 190.698 16.2462 189.674 24.7385L188.308 35.6308C187.283 43.7538 180.113 47.8154 173.626 47.8154C167.138 47.8154 161.163 43.7538 162.187 35.6308L163.382 24.7385ZM173.626 24.5538L172.26 35.8154C172.089 37.4769 173.284 38.4 174.65 38.4C176.016 38.4 177.552 37.6615 177.723 35.8154L179.089 24.5538C179.259 22.8923 177.894 21.9692 176.699 21.9692C175.504 21.9692 173.796 23.0769 173.626 24.5538Z" fill="#D81E05"/>
<path d="M194.112 14.7692C197.698 13.1077 202.136 12 206.234 12C213.916 12 220.062 15.5077 218.867 25.1077L215.965 47.4462H205.551L208.453 25.2923C208.795 22.8923 207.258 22.1538 205.722 22.1538C205.039 22.1538 204.185 22.3385 203.502 22.5231L200.258 47.4462H189.844L194.112 14.7692Z" fill="#D81E05"/>
<path d="M233.678 26.5847C239.141 26.5847 242.897 31.3847 242.214 37.1078C241.361 43.0155 236.41 48.0001 230.946 48.0001C225.483 48.0001 221.727 43.2001 222.581 37.1078C223.264 31.2001 228.215 26.5847 233.678 26.5847Z" fill="#FFC61E"/>
</g>
<defs>
<clipPath id="clip0_621:283">
<rect width="242.427" height="48" fill="white"/>
</clipPath>
</defs>
</svg>
