<svg width="24" height="25" viewBox="0 0 24 25" fill="none" xmlns="http://www.w3.org/2000/svg">
<path d="M12.86 24.9017H1.93216C1.23646 24.9017 0.672852 24.2862 0.672852 23.5272V1.37437C0.672852 0.615201 1.23655 0 1.93216 0H22.2303C22.9257 0 23.4895 0.615201 23.4895 1.37437V23.5272C23.4895 24.2863 22.9256 24.9017 22.2303 24.9017H16.416V15.2584H19.3818L19.8259 11.5002H16.416V9.10086C16.416 8.01278 16.6929 7.27129 18.1225 7.27129L19.946 7.27042V3.90909C19.6306 3.86329 18.5482 3.76097 17.2889 3.76097C14.6599 3.76097 12.86 5.51236 12.86 8.72866V11.5002H9.88657V15.2584H12.86V24.9017Z" fill="#0A142F"/>
</svg>
