<svg width="24" height="21" viewBox="0 0 24 21" fill="none" xmlns="http://www.w3.org/2000/svg">
<path d="M23.334 2.53154C22.4956 2.94822 21.593 3.23 20.6461 3.3559C21.6131 2.70841 22.355 1.6817 22.7046 0.458653C21.7992 1.05819 20.7988 1.49435 19.7301 1.72817C18.8783 0.710458 17.661 0.0749512 16.3137 0.0749512C13.7303 0.0749512 11.6344 2.42063 11.6344 5.31339C11.6344 5.72407 11.6746 6.12276 11.7549 6.50646C7.86442 6.28763 4.41587 4.20425 2.10567 1.03121C1.70256 1.80761 1.47221 2.70841 1.47221 3.66766C1.47221 5.48425 2.29853 7.08801 3.55473 8.02778C2.78869 8.0023 2.0655 7.76398 1.43338 7.37429V7.43874C1.43338 9.97777 3.04716 12.0956 5.18995 12.5752C4.79755 12.6982 4.38373 12.7596 3.95651 12.7596C3.65518 12.7596 3.36055 12.7281 3.07529 12.6667C3.67125 14.7471 5.39887 16.2624 7.44791 16.3029C5.84618 17.7088 3.8266 18.5466 1.63426 18.5466C1.2566 18.5466 0.882947 18.5226 0.517334 18.4747C2.58914 19.9585 5.05067 20.8263 7.69299 20.8263C16.3043 20.8263 21.0118 12.845 21.0118 5.92191C21.0118 5.69409 21.0077 5.46627 20.9997 5.24294C21.9144 4.50401 22.7086 3.58223 23.334 2.53154Z" fill="#0A142F"/>
</svg>
